<mxfile host="app.diagrams.net" modified="2021-08-20T14:18:51.828Z" agent="5.0 (Windows NT 10.0; Win64; x64) AppleWebKit/537.36 (KHTML, like Gecko) Chrome/92.0.4515.159 Safari/537.36" etag="UMTUNkTMY8Qp1sf-FYtK" version="14.9.8" type="github">
  <diagram id="Nb5laJKsN145ivsNdCXh" name="Page-1">
    <mxGraphModel dx="1663" dy="1535" grid="1" gridSize="10" guides="1" tooltips="1" connect="1" arrows="1" fold="1" page="1" pageScale="1" pageWidth="850" pageHeight="1100" math="0" shadow="0">
      <root>
        <mxCell id="0" />
        <mxCell id="1" parent="0" />
        <mxCell id="g-8apCYAnXnFonWx_uCg-18" style="edgeStyle=orthogonalEdgeStyle;rounded=0;orthogonalLoop=1;jettySize=auto;html=1;" edge="1" parent="1" source="g-8apCYAnXnFonWx_uCg-1">
          <mxGeometry relative="1" as="geometry">
            <mxPoint x="343.75" y="440.0000000000001" as="targetPoint" />
          </mxGeometry>
        </mxCell>
        <mxCell id="g-8apCYAnXnFonWx_uCg-1" value="- GET api/bikes&lt;br&gt;- GET api/bike/{id}&lt;br&gt;- GET api/bike/{id}/components&lt;br&gt;- GET api/bike/{id}/component/{id}&lt;br&gt;- POST api/bike/{id}/component&lt;br&gt;- PATCH/PUT api/bike/{id}/component&lt;br&gt;&lt;br&gt;AF:&lt;br&gt;- GET api/users&lt;br&gt;- GET api/user/{id}" style="whiteSpace=wrap;html=1;aspect=fixed;align=left;" vertex="1" parent="1">
          <mxGeometry x="236.25" y="125" width="212.5" height="212.5" as="geometry" />
        </mxCell>
        <mxCell id="g-8apCYAnXnFonWx_uCg-2" value="&lt;font style=&quot;font-size: 19px&quot;&gt;Server (ASP.NET core)&lt;/font&gt;" style="text;html=1;align=center;verticalAlign=middle;resizable=0;points=[];autosize=1;strokeColor=none;" vertex="1" parent="1">
          <mxGeometry x="237.5" y="105" width="210" height="20" as="geometry" />
        </mxCell>
        <mxCell id="g-8apCYAnXnFonWx_uCg-17" style="edgeStyle=orthogonalEdgeStyle;rounded=0;orthogonalLoop=1;jettySize=auto;html=1;exitX=0.5;exitY=0;exitDx=0;exitDy=0;" edge="1" parent="1" source="g-8apCYAnXnFonWx_uCg-3">
          <mxGeometry relative="1" as="geometry">
            <mxPoint x="344.8620689655172" y="340.0000000000001" as="targetPoint" />
          </mxGeometry>
        </mxCell>
        <mxCell id="g-8apCYAnXnFonWx_uCg-3" value="- Login with Strava-user.&lt;br&gt;- Blank page showing your bikes.&lt;br&gt;- Each bike has its own view (SVG-manipulation?D3.js? for visualization)&lt;br&gt;- Each bike has many components showing mileage and recommendation for when to swap parts. Can also deactivate and activate different parts. Retire a component and add new." style="rounded=0;whiteSpace=wrap;html=1;align=left;" vertex="1" parent="1">
          <mxGeometry x="140" y="440" width="410" height="330" as="geometry" />
        </mxCell>
        <mxCell id="g-8apCYAnXnFonWx_uCg-4" value="&lt;font style=&quot;font-size: 19px&quot;&gt;Client ( React and TS?)&lt;/font&gt;" style="text;html=1;align=center;verticalAlign=middle;resizable=0;points=[];autosize=1;strokeColor=none;strokeWidth=8;" vertex="1" parent="1">
          <mxGeometry x="140" y="420" width="210" height="20" as="geometry" />
        </mxCell>
        <mxCell id="g-8apCYAnXnFonWx_uCg-5" value="- List of bikes&lt;br&gt;- List of components for each bike" style="shape=cylinder3;whiteSpace=wrap;html=1;boundedLbl=1;backgroundOutline=1;size=15;align=left;" vertex="1" parent="1">
          <mxGeometry x="555" y="150" width="225" height="240" as="geometry" />
        </mxCell>
        <mxCell id="g-8apCYAnXnFonWx_uCg-7" value="&lt;font style=&quot;font-size: 19px&quot;&gt;Strava API&lt;/font&gt;" style="text;html=1;align=center;verticalAlign=middle;resizable=0;points=[];autosize=1;strokeColor=none;" vertex="1" parent="1">
          <mxGeometry x="-30" y="100" width="110" height="20" as="geometry" />
        </mxCell>
        <mxCell id="g-8apCYAnXnFonWx_uCg-8" value="" style="endArrow=classic;html=1;entryX=0;entryY=0.25;entryDx=0;entryDy=0;exitX=1.01;exitY=0.367;exitDx=0;exitDy=0;exitPerimeter=0;" edge="1" parent="1" source="g-8apCYAnXnFonWx_uCg-11" target="g-8apCYAnXnFonWx_uCg-1">
          <mxGeometry width="50" height="50" relative="1" as="geometry">
            <mxPoint x="140" y="160" as="sourcePoint" />
            <mxPoint x="190" y="140" as="targetPoint" />
          </mxGeometry>
        </mxCell>
        <mxCell id="g-8apCYAnXnFonWx_uCg-11" value="" style="shape=image;verticalLabelPosition=bottom;labelBackgroundColor=#ffffff;verticalAlign=top;aspect=fixed;imageAspect=0;image=data:image/png,iVBORw0KGgoAAAANSUhEUgAAAQwAAADHCAYAAADs1G1QAAAftklEQVR4Ae1du44lRRLdH8JZJARo2ukxEEYbs9bAjjQOK/Bb66K1GOHggAZ/xfoIMcMH4GAMY685vb/QH1Crkzcj76morKqs161HHyRUWTdfkREnTkZWZ+b85b33/lrpf+lAGBAGSjDwl5JCKiMwCQPCADAQCOPq6rrS/9KBMCAM9GFAhCGy1GQhDBRjQIQhsBSDpW/2Uf7xIxQRhghDhCEMFGNAhCGwFINFEcTxI4g+G4swRBgiDGGgGAMiDIGlGCx9s4/yjx+BiDBEGCIMYaAYAyIMgaUYLIogjh9B9NlYhCHCEGEIA8UYEGEILMVg6Zt9lH/8CESEIcIQYQgDxRgQYQgsxWBRBHH8CKLPxiIMEYYIQxgoxoAIQ2ApBkvf7KP840cg0wjj1V1l/92//VHAE/kIAwfHwCTC+PWuqt69Oj6rauaUjYWBEwYmEsZ99ef3ApPAJAw8FAxMIowf3t4rwjh4CPpQHEHjLCP9SYShJUmZkgVG6ekoGBhFGIgs8J++X8gRjuIIGkcZlkcRhilXEUaZkk1fekpfe8fAJMLQNww5wN4dQPIPw/Akwvj1Tn8lEeCGAU762re+JhKGvmPIAfbtALLfMPtNIowr7fTUzkb9WflBYWAaYQgsDwosmo2HzcZH1JcIQ6Qn0hMGijEgwhBYisFyxBlTYxoWNYkwRBgiDGGgGAMiDIGlGCyajYfNxkfUlwhDhCHCEAaKMbAOYdxeV//4+bp68uy6uuK0N1xXHpX99OV19fybM/s//ubU/qdX1xWnL8X4T38+y8Np9B/keXmW9VIylfbD+uJ0aX2V265t57DNqoQBhzbCCGkiAQzOABuIxeXx4LOE8Z/r6rG1EdNcZ8k0SOLp7Qk4nE5j6iOMZ9fV85/PpOdlRZsgXPzPRGnlOP8fmb5Mr615K+rOxqDnNolnHcKIDhFIgtMdpNAFIE8YgYSMJBClWHpA+1NO5D75z5kwOI0xBGfNODGP78nLE9nB8WtEmtEVyjCh+jrov0Yqz66rp4jGoJecHKwvTg/QHY9F6W06/li7rEMYV9fVU3JiTmMgtRnSOw2ASzMwZtmnbkkS8s0ZUNbSA0CPk7j4b8xdpSAwc2JOY2wgDDgwHNmiBItGvBG98/t8vKP9tvrI94SS2mgjDNYXpwfoLvWhOsXfBvais9UIo1RBOafBb+wkeK/NohsGqi0HjFCM/NI7yZ4bu9dbtgzIoGNJE9poIwzq3/el92NFC2PsuT/CyITJjSXJhkGfW5L4ZYsZMksGNLa2elYfT7TB5JryRBiHm/2TbQkjc/8mwlhQuTljzUUYrUTgx9NGDG2/+/p6F7EQBvZHGPH7BYfwcJ65lyRTPnrmiMJ+syVJ+pgJx819p4nRQSpnRsuM39q25Q3XaXz0tHamEMb3b6twSePdazmT6fOBPPdHGDBMdDJbpz+JHxKT48xgvCkfPbvkAGGA3EBySX7sRzGZ3dh8Ga5neemvQM+uq8eRUFKe++CL5VvKMxnoA3SSw+TJPY0wqrvq11y+fjvb82C62DxhFAH4YEbZx5hfV+/u31Y/SPeHJYccDkUYAvwowCMCG/Mn5xwI9RtFmBvHowhj4wbaojPptvj9OPjc+BFhiDBGRRhzA1Ht7YOERBgiDBGGMFCMARGGwFIMFkUB+4gClrSTCEOEIcIQBooxIMIQWIrBsuTMpbb3Eb2sQxhxc1LYrcnpuZ13ybYnyMo7Uzl9Wae5qf749ovqf/H//371ST9x3Pyt+m+q87z67WYfIL+sXo+tk1UJI2xhjk7N25nnMrBtw+Zt5HO1PaUdkIQdCOP0lDaH1v33P7+oikgiS4wgGxHGUJ0fofw6hBG3LweS4HQWnMdjbD5lyulyQL2u3p0u6xi50/KT6rd/TXF4EUa5rY6F33UIAwer6PwCp2EIzLqfxsgjnHugssFQyMMZiZYyqM/nJTh6CQ5q5ylw0U28yKZ2eI3bpWjAQGKX1vC5DKufixj88Xu8W9TDaWu/9znhLAciC1uGpOe//la9SGRdX6r87583maVKB2HUli1fVI36Ln98lHMsR+y1ebLPuuNejTC6FBQcng5NBcek90QU/FuLQgP5UB4IouHcRkAoh4jHtevbCPJkiCSMiduy9jzhkTxdelgury3CwO+fVf8m+UAwf/zdg7SNMFC/Xv7FV8/P9UEWNXK6rvLt+/70vhwWhul2s4RhM3ByQnY6OCW/E8C9Yr2z8xIg5WXas8jDIhWWB4RhpOP7wzvqWnk7nZort95vbYRxAg+cPEUf3+a+dbQRxnWV6jpiwFhTXvpweop2FGUMc9r1cHNdiTBANkwYSLuLdZkAYKw+wgjtxSgFdXlJtKaxz323EcZpOcIODCfn91Mb7YSR+qClh9Wf9qF1P06VdNAxke21zGYJw/6KAMXC6WozOjt4j1FSFBHLoS1rO+VRe+EvK7wkiR9lLWKAPL2Ewd9huK0eWctBtNBHz+DkvCQ5LTHM4c/yNZcep7yb6g8XWYSowr6DRBKpLXFuPqHvJydSWOryorP8Ip+xutguYdiHSXzA9E5HDt438EQKhYSB9kAqthTB0gfX/g8ljEX/pDvho+dJX20Rhl82PK9+++qzTIRxXV39/bPzssVIAs5PkcVpWcMEdF1d+Xx8M3H7OYwwKt3olfngvC7ZbZYw2EH7SGGT+YhMCr+zbFL+2aKhkQB/daf7Nta2QaZ/EUZGKXM4MC995mjvYbWBJdd99ef3I8lmIZs+LBvkdS/CmBlctpypfXOZuY9jAxdkobtCt2rjTRLGVpUlufKzjvTycPQiwtDsv7kPayKg7RKQCEOEIcIQBooxIMIQWIrBopl/uzP/pWwjwhBhiDCEgWIMrEMYvP2a0zJcseEuNaMM7cc2rGE7PKeHtqPy24xmViWMcMYiEsb2zlts02BFjjR10xhs4nfXFpJ5IIm4YY3TRXIX9tHV1qMvf6/ef/Em/v979ZHbRdpVV3n9mF+HMOL5jEASnJ4BMDJ6PKI/ZZfpBMJoHOQbIYdtDX/3qh/AbG+QxQdf3p6jtM9/qd5/8Uv1sXB11slEXaxDGD0X6KTTnjH6COc6HPBsg1Quz/4V83QexM+W3K47mYpZ0W+68udRcPgMB9jwtD5qdSIJZvNgMNe/HYZj8HelIY+1XTvm7/rNlsmclXlsIHJypfpOf726t/KQx9LWR8Fzrn8IO0Qbt9/N5ixdNnkoeasRRqeCDbgtYANga2dNUJ7KIp+dECSQ3mPbaQkUnczaKyUMOFNqk53AtYdxglis/USGVKcxHsrzemqclL1tElxtlndt1WSJ3xlqZGffHkifLENDVqd7LrtO+rb66OvTkqQWbTg9rCPbsIhpizJulzBcRJGUVzCLhrUzZuFMGw2Hc8fVSwnDO5nJl6tveXii/zRzU6SQJZ8cyI1McY1hLh+/oUxm7EkOaiPI4sgh6M/9FuoW6D710SbbBX8PEcbXP1WPLtjnlsa/hCz7I4w+Z2BwEMDNwZcmjFz7bDgf/XDe0HRamnjn7tAR+udoLBfxtBJGR7tDZb9MeUQb+vA5p673Rxi2BndO8vjZOdzzlwrXHCDOrml29ksI5xQWEaTyLiJpGMO3F0P8VD/2n5YoyCfZG+0xAcaxp7aQ5+QN9aMMtXKxHZAM9x3G53SZbTPWbxDOQPn7xof8sR89P759U/TR8/SNRKdhS2zhy+ySMDCIANxcSP/s5IDPKQ9hd815otPa0oAdyLeNpQL64vp9UYT/6IroBregJ+W7/nFvBrefyjmywO8glxRZxDF6+VHOiK4xRtf3U3zk9YSR0S/L16r7jLxdY2nLG/fR87Z6dHNdgTT6/qw6rn2y30zjbBv/ln/fJmE8YINsGSxHkg1RzNA/2x5p/GPHIsLYGDn52dsihOKPohsbz1hgLlovXHGoOzfG6FiEIQc7L5Uegi5AFvdvR/6LcVqWiDAegpNojA+LFBe0twhjQeWOCflUR7P4ljEgwhBhaPYVBooxIMIQWIrBsuWZT7JdJjITYYgwRBjCQDEG1iGMuHkobDjidIvhWjdKFdTd48yDjVm2lZ3TexyLZL7MzH8pPa9KGGH3YHR63knoB99GGGHLt9vq7Ou2vaPNre5tAEmYbJxuG8usv9/8VH2QLqBxW61B6BPz6xfcZO6qCHdY2G7NTP7V+TRq2NGp4+vF0cEcOFmHMPisA6eHRhgt5UsUs2XCwOYtIwxOl4zrVGbkP9YMMqid7vyu+vDFm+rDz22WPDnr+f20Ffv83p3vz3o07qsIZESHxUAeNXlO7fOxdbRx7t/k1LMcK8N0tQ5h9F2gE0kk7XJ8eQ7RoQjMupaHZyM6cfX5dCaIguta2hw0KDpGPa15L8/3VYYy/iyG69+WF8mIXe3HcyB2PgTyWjrV7yPKyf9YcwRRcGA3y8OJ06zeJIirvnyW3RFUg0BCNNFFIMPAXqw/llHpWgSzGmF0Gc+H4XhvOF00JPI8YfhZGUuXGiHEw1X+tyATnN0RQK2P6OwsD/KTU0eySO+OAHLHySEvl+/SzSXy0rKhNrtH56wtGd4QeRTmkwOiHx8thHciKkQlFkFYeT5gxvUvoZuH3sf2CAMO6S5/wSzLDspGqzlzBKN92/DtcD1PKpyHNPItwsAzOXRGPm4LfbfJinaLIhxyKi/XRd/9EuHKLVECeXAE0pdPEQHqOkIyQghRyotTZOEJA98tjECu4veM8zu1vxUdHkyOQxJGcipaGngnZidP5WHcGEEkgojkkd57CKOL3NBPa78bBVZyYshXW25QRGFLlL78OEa06ckCugm/W1uhLJY8bklSyz/VUZRxOaLcHmFkQnpEEd7hzclzEUbnBToRtG2OHaITXpJ4eXoIw+7CSAQz8wU6Nu7u58iPno1Z30UMIcIgB76K908kJ0b5rnxf3gPd1c/Kw+278tG2Yy/g6dapl/Vhvm+PMGD0OMvbkuBJR5jfIIySC3TQB0Uf/sNlbTmC7wv84bGPMDJtg+zmukCnCNQjP3o+urk9RRED/qzaiBTCMsb+LPqmFkmECILatotuakuKWn1e7kQHreXz8uTswEYY1d3r2ge7It1F0lHZsz5ZF9skDBlNQJ+KgVd31f3bH6XHqXp09UUYTiHMpkrnZ5nt6wVLMt3ZuYSdRBgijIPNwiAL3aa1BFmgTRGGCONghLHXqGgfcoswRBgiDGGgGAMiDIGlGCxLhblqdx/RhZYkIguRhTAwCAOKMASYQYBRNLCfaGAJW61DGHFjVtgNyenovNiMxTsllxj4kDa3Jk+n7KxPTl+IGO0cDw4EcjrI7DfL0b0fyG8r7w8J1s7juHNHYdNd3KnL6U6dXUg3R5BhVcIIp0wjqPnE6dYcdGvydAKP9cnpCzlFcProxJwOMoMw2MEjgZjtjTBssrB3JowGCdzWjw0g344RcLpTZxfSzRFkWIcwGCicjobbmoNuTZ5O4LE+OT3EKWxr+Zit1SApIwVOo3/IY3kZW4MgntLJ5ODwdJlQ1z8SbTrhM0Kctnw9py2p1iGMngt04KA4e2FnSRIADfTIQ9jZUQZtpPp8mCzWtdnLnyMBoHzeEMJA3XB2hC7qsRnPwFpr3y2/0BecBnKhno2DZ9laSJ65D4QP33Ha+u99vrqrwn9j/oUwkILpm9M5woAtiEBMdyYznjjHY2MvIQC0YeU53Ttmw5aend+0ViOMLgMGJzHQ2R0S9J6Ign8jQ2NmsjAX/QBoBiKry05cI4RIQql+fLcwuUtu5BkZpP78LO9CaD/rBsLAv/Qe66Ffc6TGWHJOSHrok/Xi+XFMicgd2dk4YS87cMi2KyGMi49py/peQLbNEkbNQd1MVBKamuMaOBNB+LbcHRU5UNYIpccIoV9HZLn6+M1kw9MIKpWFc8XZl9v09awNq79ph6ExmZwYj5GrEYaROjAgwpi2hDA9z/U8JGEAhIkg4qyf3lcmDCMydnDIa+9IB7Ik50qEEWdoKzsXCC7WDo3J+kxjc3ayZQkTRslEYe3quQzRbJYwkoPHCIDfO4GTcara1/IewggApnU1z3YlIGQHsPKJBOLyqDGWUsKw5RnLB0d7NjM4pnz07IrAMoTBtoHuarrxy8mIBb7UGfbxdUzvbc9fwycanWZt00/X75slDKxhLdyuAQSAzDg9DzI4LYX8th4OZTJ1AVoLi1EGsxr3jfzaEqnDKfoIA+2DQHz7FjUkciHn8m3W5HPRFOthdHrKR88O3dh3mTR2J3sJYWBMsEdqA9+rBhLmiTAq3ZfRZauWvE0SxmigtwxS7c0cgRxAz7iV690r6WWob4gwBoLfz+420w0Ni4caSuVndO6w5NKdGWMwJcIYSBhjlKw6Mzr7VHuBLMbsL5na70HqizAOYkiR0oZI6cCYEmEc2LgiEZHI3BgQYYgwOrcCzw04tbdvEhNhiDBEGMJAMQZEGAJLMVgUHew7OpjDfusQBjZP2RZoTi/kvPhTaOmfPWubvtyOyjkUvngbrE9OL6RbPx7THzaicRrlahvWePPaHvWc0affAOh1k97jbmTeLJjyMu2W5rG+OV1av6TcqoQRdjdGUNtOxxKhh5YZQhipbci1RyCzPjk9AYhJJwVtBKBGvXG61kZm+34tv6CfLZYvJoxol0UIo0/3E3W7DmEwYDg9cTBtIHpQhMH65PQQ3U45S8JEy2nuf6xc3MYG08WEsZTsrG9Oz9jfOoTRcYEOZiVcwPI8hqzpTImb7Tm8bSw3IiBtFybf4hRIxeU36kPBIxUe5Mc/vkznUXz7YealkJzPqWBch71Ax4DbRRh9toFdSHc8SweHNb3jTo145sT0X6LbLtv0YQf9wZaMTbatyWPycx7a7qtvZax+IwKG7uxqBU6b3md4rkYYQfmZAQSDRXIIThcVACPYsiUYHpfMxPpQtIECv/l8vKd8KNKRD/ph4IV2JxAGDJraiw5gsjdOVzp5kuyxHkBlJAS5GrK6+qaTTT+9TgwHmbHUxot8c4hYB/oy3TIOkh5hR8JQsEvs3+u2zzZ2eI4dHfLZuxGCyROw7OQ1uxg52DueffUbdWhs3M6S6W0SRlQygwUACIbJOTL/xukIKrRjhOFnEGNry0/KzrST8gzgmWcOJEl2Ko/frG88DWSpLDkPt+nrWRtWv0TG1ctEh/Uyl9rGHMvGzg5rRA09hfbJjn26Nb14HZuckK+BE7Ip5LL+Q1vUt7Vtz4bzR8JorR91ZmNOTzf5WftLPR8cYTB5dCq1w9hd9di5rVwCauYvByiTwB3TwQFyhNHiaNbPbp4t4+i1DWxiE0d0VHY8dtikU7JjskNOtwW26ZOP+w+2oL69bVhuy+us39GW1b/Ec3+EkVlyQNGJ+SMYbdaBEgEUn19jcoT9NFMExbeAus8ofYTRAF10ApvF+kCN+n7tupsLdEzHbbqNv7fZpqFbZ2t2uDGE0Web3JIEMpntuP+Akw4nR1nGKMr31Ue+La8Mh4NtP+WD9hb/9XYGBQxo4EmOFEGHdwvLEhkYIKMTWn7tAh2UiUCzfDhg7hKW4Jyxn0Yf1pd7svxm1C7ZAQAAwUCXykLGGG76NlkujKFUNpOn97nUBTqmq6h/G3NNnh7bBKcx28dbxc3x2OGgx9A+OW2JblEm4cLZJsjp5IPuccM98rj/UJb6ro0xljW5La+kfm38/K3MdNv3NMKoxh3v31yEYcrT8/xRV7qQLubFwOvq3cgj/iKMPkZ2+X52t9lo9lne9TsvYOSAD1mfuKLw/u2P6a+MQ3QhwpBjjgLOEJCp7HYIGmQx5WpCEYYIQ4QhDBRjQIQhsBSDRZHCdiKFtWwhwhBhiDCEgWIMiDAElmKwrDWrqd/tRDYiDBGGCEMYKMbAOoQRN1aFjSuc9oZzm2RsE5dmnI4Zh/XJaa9bvRc7ifB2xtuqhJF24tmuPAfixs43l79lQ0J2v5PvIvJGkujT7WKy3PxUffDiTfV+/P+DL2/lmDvCbR8u1iEM3hrMaafYtL3X/d43qC3kr0YYrE9OD9GhbR++ez3M2UEWX/9UPUp9fVd9+OJN9eHn5xlqC7aRDOPtsQ5h4EAYHcvlNIzp98uH3ZR8rwBmUbzH2TTkU3tow58JMJCEqKXjkpVQLjramF2cWdnphCXk8ksr7B61naI4N4I0t5Mrb7Lh6c9ksD45bTrofc51liREG79UHycCGQ/UXpnVxzByH6mv1QijBACtEYYRBZMIKQDOxk4EhzSnQ545Z3JeIyC0AbJw5MP1S+RGGbSdXZJwX5n+wkEzrhvJy9pqyJKRt1TGpco9+vL305KkFm2ILJbS9yXb3S9hOKf2SjPHs5nYSAKEYeSRCAlOHNvz9Xx930/beythuJOKFlFYO6F/R4ReZpOJn0yQ1tbqzxBh/F59dCOyWN0WNKFOkeWQhAFnNYKActgpvfOlj4ORMHh5MEWxXYQRllKRFCAPO3snYcRog8tPkfESdRFt6MPncQjzeISRcSo4pRFIH2HYXRkWhQSnyl2w08PY3E/OMUN045cndusTR08oQ98pQGgWDVm7gy9R6ZH9auxHz89/qd6vLUNaPnqObb9PbuUv/h3jeIRhTkcXofAFOuzIwWkBMlqSGEHYreUh7G+5YMccNvuMjm7LBiMsKxsiCf5WEcEeoiG6NR317fuF1Q2kQePzbVu50c+RHz0f3dxWVyCNvj+rGmGMvMRl9LhEKJMJZdOEcWhgtHyszC1JjqmH8Ze4HFMf+1i2iDAGzjp+dm+LIPpAzZEOl30ohDHlEhfWl9KXJRoRxkDCmApQEAVIpm0Z8RAIY+olLlNtoPrjSUaEcWHCEFjHg1W6W193IgwRxuQPYXLk9R35UjYQYYgwRBjCQDEGRBgCSzFYLjWLqZ/tRiwiDBGGCEMYKMbAOoQRNzWFDUmcbjHcXNu15565crsu5+wj/EXFnSuZ3D7rm9Mtup/cn2s3/BUo7lzlNPrx79ldt669QfLF8dqfwnOb4qy9rO5Rn3fhTpElV5ftwelc2ZV+W5Uw0jkO2vpsBuPnVgkjgGokgFDX7+DkMSONnaj+39L0ZQa/RyCW6n5w+z1ADqQQdcZp9GOEYXqx99o2/Z72O+XF2JmA8d5iv6zuO8p39lsq88q2KRnDOoTB5z043aLYrRJGiYLbypQQRlvdSb+zvjndovtsX7a1e+gFO+iDnY7TkTCe0t0g0BGuGliMMIaO38mb1c0QPfqyLA+nfbkV39chjJ4LdCwUtdCRQWRGCrO7nafws0RUttWvzSpR2WEGsfo861xdVyAogDQsOWKZtNEqzgJtbWNWRFmWjwHPv6c26LyIzaqWl/olkNTacLIjDzM0j89mbNMdX6rDacvvfY48axLahW1MZk5HwsB4TSY8n7TcZWIyBn1Ze6Qjy689YTsq6+v26t4TRsQC24gxAxsOPVlsY4fcnK6No2+cC+avRhhdCgDY2cnwzkYxp0htOCAgn+sDCPzu2/f5ZnSuk/piY7h+UcZAl5w0kld6j/Uhg//N94G2eNzIx9j4tyArOQHyGahBHsr3fWzp3caLMdmBQaSTHaBLNzlAj8VOGR3cyLhtOQKdmCw1/aC+9c/paNOarPgtI2+tPcbSTtLbI4wWQyQniQ6YjG5RghmSnDYZl42B9nscCIZP/XFdn860lXNQT2AAzSjCiGOvOYj7rdFXRp9bBW1yUsgcCdU7Ye09o//OsfnyUXc54k6ysM2jLj/95iwf9webNnA5hNC4r42m90cY0WiPSxRK5GIEkHNoNjrSIox19gGwk1o4XiMI2Bw2jZMD8nLO7u2Z3j1hdNiaZanVBylgwvE4dMSd6pTgdEdltkcYGdYHc5vDwxAh7HZRAl8iY2Azo3mSQHspzIWxbuvAm0wYFO0EYGVmmUYkkAFNDrSox7qArBwxNdr1wM70Y3oqfk756NnRf268DcKwKw5vz8RRLHeGMBpYiPLlZPEk4XEVbMG2R7T7rEm+IRJx5YrH0KG/S7SxPcKAQmBYCu9sPcsKCaRBZRIB4HYsiiysnVoYb3+ytPovr6tPb8+GnUoY+KjHF/BkZ0E3RiYBG2cWtEaYJLuVx/MihDHlo2cH4HPjzRGG4SPZvKNN1o3VM0zg2dZGThZPGKZvXvoG0jDbuIkuyELY9JisyVo6pguX2yZhXFgJcxrKzzpztq22zqSOWXqPDrd3G4owZiYnEcbZqZdyjuIIcGbbLjWePbUrwpgZVCKM5Qgjhfvu+9WeHG7vsoowZiaMvQNC8i9HeEfQrQhDhFF8UvEIgNcYphGiCEOEIcIQBooxIMIQWIrBotl52ux8BP2JMEQYIgxhoBgDowgD18Sf/ruv/vxerHuEmUNjEI5LMDCKMKzhH97eV/dvfyxmJ6unp8ApDOwTAyIMhaMifGGgGAOTCePdq30ypWY42U0YGI6ByYShJclwpQuo0tleMTCJMDBofMeoKn383CsAJLfIawgGJhGGPnoKbEPAprL7x8tkwtA3jP2DQI4sG5ZiYDJh6BuGwFYKNpXbP1ZEGPqTWvGf1OTw+3f4qTYcRRja6SngTAWe6u8TQ6MIQ8bep7FlN9ltKgZEGFqSaEkiDBRjQIQhsBSDZerspPr7j3BEGCIMEYYwUIwBEYbAUgwWRQj7jxCm2lCEIcIQYQgDxRgQYQgsxWCZOjup/v4jFBGGCEOEIQwUY0CEIbAUg0URwv4jhKk2FGGIMEQYwkAxBkQYAksxWKbOTqq//whFhCHCEGEIA8UYEGEILMVgUYSw/whhqg0DYbz33l8r/S8dCAPCQB8GRBgiS00WwkAxBkQYAksxWPpmH+UfP0IRYYgwRBjCQDEGRBgCSzFYFEEcP4Los/H/ASRmgdwk2xbEAAAAAElFTkSuQmCC;" vertex="1" parent="1">
          <mxGeometry x="-75.99999999999999" y="125" width="202.01" height="150" as="geometry" />
        </mxCell>
        <mxCell id="g-8apCYAnXnFonWx_uCg-13" value="&lt;font style=&quot;font-size: 19px&quot;&gt;SQL server&lt;/font&gt;" style="text;html=1;align=center;verticalAlign=middle;resizable=0;points=[];autosize=1;strokeColor=none;" vertex="1" parent="1">
          <mxGeometry x="550" y="125" width="110" height="20" as="geometry" />
        </mxCell>
        <mxCell id="g-8apCYAnXnFonWx_uCg-15" value="GET equipment" style="text;html=1;align=center;verticalAlign=middle;resizable=0;points=[];autosize=1;strokeColor=none;" vertex="1" parent="1">
          <mxGeometry x="126.01" y="160" width="100" height="20" as="geometry" />
        </mxCell>
        <mxCell id="g-8apCYAnXnFonWx_uCg-19" value="" style="endArrow=classic;startArrow=classic;html=1;exitX=1.004;exitY=0.294;exitDx=0;exitDy=0;exitPerimeter=0;" edge="1" parent="1" source="g-8apCYAnXnFonWx_uCg-1">
          <mxGeometry width="50" height="50" relative="1" as="geometry">
            <mxPoint x="460" y="230" as="sourcePoint" />
            <mxPoint x="555" y="191" as="targetPoint" />
          </mxGeometry>
        </mxCell>
        <mxCell id="g-8apCYAnXnFonWx_uCg-24" style="edgeStyle=orthogonalEdgeStyle;rounded=0;orthogonalLoop=1;jettySize=auto;html=1;exitX=0.75;exitY=1;exitDx=0;exitDy=0;" edge="1" parent="1" source="g-8apCYAnXnFonWx_uCg-22" target="g-8apCYAnXnFonWx_uCg-2">
          <mxGeometry relative="1" as="geometry" />
        </mxCell>
        <mxCell id="g-8apCYAnXnFonWx_uCg-22" value="Trigger every day&lt;br&gt;Get users, check for every user each compoent on each bike if mileage has&amp;nbsp;" style="whiteSpace=wrap;html=1;aspect=fixed;strokeWidth=8;align=left;" vertex="1" parent="1">
          <mxGeometry x="220" y="-140" width="193.99" height="193.99" as="geometry" />
        </mxCell>
        <mxCell id="g-8apCYAnXnFonWx_uCg-23" value="Azure Function" style="text;html=1;align=center;verticalAlign=middle;resizable=0;points=[];autosize=1;strokeColor=none;" vertex="1" parent="1">
          <mxGeometry x="263.75" y="-190" width="100" height="20" as="geometry" />
        </mxCell>
      </root>
    </mxGraphModel>
  </diagram>
</mxfile>
